<svg width="22" height="22" viewBox="0 0 22 22" fill="none" xmlns="http://www.w3.org/2000/svg">
<path d="M15.9194 12.0004L11.8549 21.0004C11.0464 21.0004 10.271 20.6843 9.69936 20.1217C9.12768 19.5591 8.80652 18.796 8.80652 18.0004V14.0004H3.05526C2.76068 14.0036 2.46889 13.9439 2.20012 13.8251C1.93135 13.7064 1.69201 13.5316 1.4987 13.3128C1.30539 13.0941 1.16272 12.8365 1.08059 12.5581C0.998449 12.2797 0.978804 11.987 1.02301 11.7004L2.42526 2.70036C2.49875 2.22346 2.7449 1.78875 3.11836 1.47636C3.49181 1.16396 3.9674 0.994909 4.45751 1.00036H15.9194M15.9194 12.0004V1.00036M15.9194 12.0004H18.6324C19.2075 12.0104 19.7663 11.8122 20.2028 11.4435C20.6392 11.0749 20.9229 10.5613 21 10.0004V3.00036C20.9229 2.43942 20.6392 1.92586 20.2028 1.55718C19.7663 1.1885 19.2075 0.990352 18.6324 1.00036H15.9194" stroke="black" stroke-width="0.5" stroke-linecap="round" stroke-linejoin="round"/>
</svg>
