<svg width="196" height="58" viewBox="0 0 196 58" fill="none" xmlns="http://www.w3.org/2000/svg">
<path d="M41 29L28.5 16.5L28 16L15 29L28.5 42L41 29Z" stroke="black"/>
<path d="M21.4319 35.8157L28.5 29L21.1931 21.6931C17.4586 17.9586 11.4377 17.8511 7.57232 21.4499C3.45706 25.2814 3.46504 31.8456 7.51005 35.7511C11.3754 39.4832 17.5641 39.5453 21.4319 35.8157Z" stroke="black"/>
<path d="M35.6261 36.1261L28.5 29L21.5079 36.2511C17.8583 40.0358 17.8065 46.0144 21.3892 49.8624C25.2533 54.0128 31.8089 54.0729 35.7477 49.9934C39.4959 46.1114 39.4418 39.9418 35.6261 36.1261Z" stroke="black"/>
<path d="M36.0681 21.6843L29 28.5L36.3069 35.8069C40.0414 39.5414 46.0623 39.6489 49.9277 36.0501C54.0429 32.2186 54.035 25.6544 49.9899 21.7489C46.1246 18.0168 39.9359 17.9547 36.0681 21.6843Z" stroke="black"/>
<path d="M21.8739 21.3739L29 28.5L35.9921 21.2489C39.6417 17.4642 39.6935 11.4856 36.1108 7.63756C32.2467 3.48719 25.6911 3.42705 21.7523 7.50658C18.0041 11.3886 18.0582 17.5582 21.8739 21.3739Z" stroke="black"/>
<path d="M64.4688 27.5938H75.5625V22.5781C75.5625 21.5052 75.5 20.7135 75.375 20.2031C75.2604 19.6927 75.0417 19.2708 74.7188 18.9375C74.4271 18.6354 74.0938 18.4167 73.7188 18.2812C73.3542 18.1458 72.8698 18.0625 72.2656 18.0312V17.6719H82.25V18.0312C81.6562 18.0625 81.1719 18.1458 80.7969 18.2812C80.4323 18.4167 80.1042 18.6354 79.8125 18.9375C79.4896 19.2708 79.2656 19.6979 79.1406 20.2188C79.026 20.7292 78.9688 21.5156 78.9688 22.5781V34.0938C78.9688 35.1562 79.026 35.9427 79.1406 36.4531C79.2656 36.9635 79.4896 37.3906 79.8125 37.7344C80.1042 38.026 80.4323 38.2448 80.7969 38.3906C81.1719 38.526 81.6562 38.6094 82.25 38.6406V39H72.2656V38.6406C72.8698 38.6094 73.3542 38.526 73.7188 38.3906C74.0938 38.2448 74.4271 38.026 74.7188 37.7344C75.0417 37.401 75.2604 36.9792 75.375 36.4688C75.5 35.9583 75.5625 35.1667 75.5625 34.0938V28.3281H64.4688V34.0938C64.4688 35.1562 64.526 35.9479 64.6406 36.4688C64.7656 36.9792 64.9896 37.401 65.3125 37.7344C65.5938 38.026 65.9167 38.2448 66.2812 38.3906C66.6562 38.526 67.1458 38.6094 67.75 38.6406V39H57.7656V38.6406C58.3698 38.6094 58.8542 38.526 59.2188 38.3906C59.5938 38.2448 59.9219 38.026 60.2031 37.7344C60.5365 37.401 60.7604 36.9792 60.875 36.4688C60.9896 35.9583 61.0469 35.1667 61.0469 34.0938V22.5781C61.0469 21.5052 60.9896 20.7135 60.875 20.2031C60.7604 19.6927 60.5365 19.2708 60.2031 18.9375C59.9219 18.6354 59.5938 18.4167 59.2188 18.2812C58.8438 18.1458 58.3594 18.0625 57.7656 18.0312V17.6719H67.75V18.0312C67.1562 18.0625 66.6719 18.1458 66.2969 18.2812C65.9323 18.4167 65.6042 18.6354 65.3125 18.9375C64.9896 19.2708 64.7656 19.6979 64.6406 20.2188C64.526 20.7292 64.4688 21.5156 64.4688 22.5781V27.5938ZM96.8125 37.4844L97.0781 37.6406C96.7031 38.7344 95.8438 39.2812 94.5 39.2812C93.7604 39.2812 93.1458 39.099 92.6562 38.7344C92.3333 38.4948 92 38.0781 91.6562 37.4844C90.9583 38.1094 90.4323 38.5208 90.0781 38.7188C89.401 39.0938 88.6146 39.2812 87.7188 39.2812C86.5729 39.2812 85.6615 39.0052 84.9844 38.4531C84.3177 37.901 83.9844 37.1562 83.9844 36.2188C83.9844 35.3542 84.2604 34.6302 84.8125 34.0469C85.125 33.724 85.4844 33.4688 85.8906 33.2812C86.2969 33.0833 86.8854 32.8854 87.6562 32.6875C88.5625 32.4583 89.2292 32.2656 89.6562 32.1094C90.0938 31.9531 90.4583 31.7656 90.75 31.5469C91.0833 31.3073 91.3125 31.026 91.4375 30.7031C91.5625 30.3802 91.625 29.9323 91.625 29.3594C91.625 28.1406 91.3958 27.25 90.9375 26.6875C90.7292 26.4271 90.4583 26.2188 90.125 26.0625C89.8021 25.9062 89.4635 25.8281 89.1094 25.8281C88.6823 25.8281 88.3021 25.9375 87.9688 26.1562C87.6354 26.375 87.3854 26.6771 87.2188 27.0625L86.8281 27.9688C86.6198 28.4583 86.2448 28.7031 85.7031 28.7031C85.349 28.7031 85.0521 28.5885 84.8125 28.3594C84.5729 28.1198 84.4531 27.8229 84.4531 27.4688C84.4531 26.9375 84.8281 26.4896 85.5781 26.125C85.9844 25.9375 86.4844 25.7865 87.0781 25.6719C87.6823 25.5469 88.2708 25.4844 88.8438 25.4844C89.4896 25.4844 90.1615 25.5677 90.8594 25.7344C91.5573 25.901 92.1406 26.1146 92.6094 26.375C93.2865 26.7604 93.7083 27.2604 93.875 27.875C93.9583 28.1875 94 28.7135 94 29.4531V35.2344C94 36.2135 94.0417 36.8802 94.125 37.2344C94.3021 37.974 94.7292 38.3438 95.4062 38.3438C95.7292 38.3438 95.9792 38.2865 96.1562 38.1719C96.3438 38.0573 96.5625 37.8281 96.8125 37.4844ZM91.6562 31.3281C91.0938 31.7969 90.474 32.2083 89.7969 32.5625C89.0365 32.9688 88.5104 33.276 88.2188 33.4844C87.9271 33.6927 87.6615 33.9427 87.4219 34.2344C86.9323 34.8385 86.6875 35.5417 86.6875 36.3438C86.6875 37.0312 86.875 37.599 87.25 38.0469C87.6354 38.4948 88.1198 38.7188 88.7031 38.7188C89.2135 38.7188 89.6927 38.5625 90.1406 38.25C90.599 37.9271 90.9427 37.5 91.1719 36.9688C91.4948 36.2708 91.6562 35.2604 91.6562 33.9375V31.3281ZM108.797 36.0469L109.109 36.1562C108.745 37.2604 108.188 38.0573 107.438 38.5469C106.688 39.0365 105.656 39.2812 104.344 39.2812C102.24 39.2812 100.589 38.6562 99.3906 37.4062C98.224 36.1771 97.6406 34.625 97.6406 32.75C97.6406 31.8333 97.8021 30.9271 98.125 30.0312C98.4479 29.1354 98.8906 28.3698 99.4531 27.7344C100.089 27.0052 100.865 26.4479 101.781 26.0625C102.708 25.6771 103.719 25.4844 104.812 25.4844C106.323 25.4844 107.505 25.8229 108.359 26.5C108.88 26.9167 109.141 27.375 109.141 27.875C109.141 28.2083 109.031 28.4896 108.812 28.7188C108.594 28.9375 108.328 29.0469 108.016 29.0469C107.339 29.0469 106.839 28.5521 106.516 27.5625C106.37 27.1042 106.25 26.7917 106.156 26.625C106.073 26.4583 105.948 26.3125 105.781 26.1875C105.458 25.9479 105.062 25.8281 104.594 25.8281C103.979 25.8281 103.411 26 102.891 26.3438C102.432 26.6458 102.042 27.026 101.719 27.4844C101.406 27.9323 101.13 28.5 100.891 29.1875C100.526 30.2396 100.344 31.2708 100.344 32.2812C100.344 33.2083 100.51 34.1146 100.844 35C101.177 35.8854 101.63 36.625 102.203 37.2188C103.099 38.1562 104.151 38.625 105.359 38.625C106.359 38.625 107.188 38.3073 107.844 37.6719C108.177 37.3385 108.495 36.7969 108.797 36.0469ZM115.078 32.6875L117.922 29.5781C118.505 28.9219 118.896 28.4375 119.094 28.125C119.292 27.8021 119.391 27.4792 119.391 27.1562C119.391 26.7083 119.161 26.3958 118.703 26.2188C118.505 26.1354 118.135 26.0781 117.594 26.0469V25.7188H123.609V26.0469C122.849 26.0469 122.234 26.1771 121.766 26.4375C121.297 26.6979 120.682 27.2396 119.922 28.0625L119.297 28.7656L117.594 30.5938L121.625 35.125C121.958 35.4896 122.177 35.724 122.281 35.8281L122.984 36.5469C123.547 37.1094 123.953 37.4948 124.203 37.7031C124.453 37.9115 124.75 38.1094 125.094 38.2969C125.49 38.5052 126 38.6354 126.625 38.6875V39H119.297V38.6875C119.734 38.6458 120.042 38.5729 120.219 38.4688C120.469 38.3125 120.594 38.0938 120.594 37.8125C120.594 37.5104 120.443 37.1927 120.141 36.8594L119.812 36.4844L116.031 32.2969L115.078 33.3438V34.4844L115.094 35.6719C115.094 36.3802 115.135 36.901 115.219 37.2344C115.302 37.5573 115.464 37.8281 115.703 38.0469C115.995 38.3281 116.531 38.5417 117.312 38.6875V39H110.422V38.6875C111.047 38.6042 111.495 38.4896 111.766 38.3438C112.036 38.1875 112.255 37.9271 112.422 37.5625C112.536 37.3229 112.615 36.9635 112.656 36.4844C112.708 35.9948 112.734 35.2917 112.734 34.375V22.1094C112.734 21.0469 112.708 20.2969 112.656 19.8594C112.604 19.4219 112.49 19.0677 112.312 18.7969C112.135 18.5052 111.922 18.2969 111.672 18.1719C111.422 18.0469 111.062 17.9688 110.594 17.9375V17.6094L115.078 17.0469V32.6875ZM130.688 20.5V34.0938C130.688 35.1667 130.745 35.9583 130.859 36.4688C130.984 36.9792 131.208 37.401 131.531 37.7344C131.823 38.0365 132.151 38.2552 132.516 38.3906C132.891 38.526 133.375 38.6094 133.969 38.6406V39H126.766V38.6406C127.359 38.6094 127.839 38.526 128.203 38.3906C128.578 38.2552 128.911 38.0365 129.203 37.7344C129.526 37.401 129.745 36.9792 129.859 36.4688C129.984 35.9479 130.047 35.1562 130.047 34.0938V22.5625C130.047 21.5104 129.984 20.7292 129.859 20.2188C129.745 19.6979 129.526 19.2708 129.203 18.9375C128.922 18.6354 128.594 18.4167 128.219 18.2812C127.854 18.1458 127.37 18.0625 126.766 18.0312V17.6719H132.781L145.469 33.8594V22.5781C145.469 21.5052 145.406 20.7135 145.281 20.2031C145.167 19.6927 144.948 19.2708 144.625 18.9375C144.333 18.6354 144 18.4167 143.625 18.2812C143.26 18.1458 142.781 18.0625 142.188 18.0312V17.6719H149.391V18.0312C148.349 18.0312 147.536 18.3333 146.953 18.9375C146.63 19.2708 146.406 19.6979 146.281 20.2188C146.167 20.7292 146.109 21.5104 146.109 22.5625V39H145.406L130.688 20.5ZM153.906 30.5C153.865 31.0104 153.844 31.3802 153.844 31.6094C153.844 32.5156 153.974 33.401 154.234 34.2656C154.505 35.1302 154.87 35.849 155.328 36.4219C155.797 37.0052 156.375 37.4635 157.062 37.7969C157.76 38.1302 158.49 38.2969 159.25 38.2969C159.812 38.2969 160.344 38.2031 160.844 38.0156C161.354 37.8281 161.776 37.5677 162.109 37.2344C162.484 36.8698 162.807 36.2865 163.078 35.4844L163.391 35.5938C163.12 36.8125 162.536 37.7344 161.641 38.3594C160.755 38.974 159.573 39.2812 158.094 39.2812C156.812 39.2812 155.714 39.0781 154.797 38.6719C153.88 38.2656 153.104 37.6406 152.469 36.7969C151.583 35.6198 151.141 34.1719 151.141 32.4531C151.141 30.1094 151.979 28.2708 153.656 26.9375C154.875 25.9688 156.266 25.4844 157.828 25.4844C158.661 25.4844 159.432 25.6354 160.141 25.9375C160.849 26.2292 161.448 26.6562 161.938 27.2188C162.698 28.0938 163.078 29.1875 163.078 30.5H153.906ZM160.75 29.8906C160.677 28.849 160.484 28.0469 160.172 27.4844C159.891 26.974 159.516 26.5729 159.047 26.2812C158.578 25.9792 158.078 25.8281 157.547 25.8281C156.651 25.8281 155.865 26.2135 155.188 26.9844C154.521 27.7552 154.125 28.724 154 29.8906H160.75ZM164.344 25.7188H170.406V26.0469C169.24 26.1094 168.656 26.5625 168.656 27.4062C168.656 27.8229 168.865 28.6875 169.281 30L171.188 35.8281L173.844 28.7812C174.052 28.2396 174.156 27.8021 174.156 27.4688C174.156 26.5729 173.615 26.099 172.531 26.0469V25.7188H178.5V26.0469C177.99 26.1198 177.63 26.2292 177.422 26.375C177.089 26.6042 176.922 26.9479 176.922 27.4062C176.922 27.7708 177.021 28.2865 177.219 28.9531L179.281 35.8281L181.719 29.6406C182.031 28.8385 182.188 28.2292 182.188 27.8125C182.188 27.25 181.99 26.8177 181.594 26.5156C181.396 26.349 181.036 26.1927 180.516 26.0469V25.7188H185.109V26.0469C184.661 26.0469 184.26 26.1927 183.906 26.4844C183.677 26.6615 183.458 26.9323 183.25 27.2969C183.052 27.651 182.812 28.1875 182.531 28.9062L182.203 29.7031L178.5 39H177.953L174.531 28.5625L170.406 39H169.875L166.766 29.5312L166.391 28.3906C166.047 27.3594 165.693 26.7083 165.328 26.4375C165.12 26.2708 164.792 26.1406 164.344 26.0469V25.7188ZM185.781 39V34.5781H186.031C186.323 35.6615 186.688 36.526 187.125 37.1719C187.927 38.349 188.865 38.9375 189.938 38.9375C190.594 38.9375 191.161 38.7396 191.641 38.3438C192.161 37.9062 192.422 37.2865 192.422 36.4844C192.422 35.8281 192.234 35.2552 191.859 34.7656C191.651 34.5052 191.385 34.2656 191.062 34.0469C190.75 33.8281 190.219 33.5208 189.469 33.125C188.156 32.4271 187.281 31.8438 186.844 31.375C186.219 30.7083 185.906 29.9375 185.906 29.0625C185.906 28.125 186.219 27.3177 186.844 26.6406C187.562 25.8698 188.516 25.4844 189.703 25.4844C190.234 25.4844 190.729 25.5781 191.188 25.7656L191.719 26C191.885 26.0625 192.031 26.0938 192.156 26.0938C192.354 26.0938 192.542 25.9375 192.719 25.625H193.031L193.203 29.1719H192.875C192.76 28.6719 192.635 28.2708 192.5 27.9688C192.375 27.6667 192.193 27.375 191.953 27.0938C191.63 26.6979 191.255 26.3906 190.828 26.1719C190.401 25.9427 189.979 25.8281 189.562 25.8281C188.979 25.8281 188.479 26.0417 188.062 26.4688C187.656 26.8854 187.453 27.401 187.453 28.0156C187.453 28.526 187.635 28.9896 188 29.4062C188.375 29.8125 188.948 30.1875 189.719 30.5312L191.375 31.2812C192.365 31.7292 193.104 32.2865 193.594 32.9531C194.083 33.6198 194.328 34.4062 194.328 35.3125C194.328 36.4062 193.974 37.3125 193.266 38.0312C192.453 38.8646 191.411 39.2812 190.141 39.2812C189.453 39.2812 188.755 39.1458 188.047 38.875C187.589 38.6979 187.312 38.599 187.219 38.5781C187.125 38.5469 187.005 38.5312 186.859 38.5312C186.495 38.5312 186.219 38.6875 186.031 39H185.781Z" fill="black"/>
</svg>
